<svg width="227" height="24" viewBox="0 0 227 24" fill="none" xmlns="http://www.w3.org/2000/svg">
<g opacity="0.4">
<path d="M151.354 12.974C151.354 19.9424 147.434 23.4266 140.248 23.4266C133.062 23.4266 129.36 19.7246 129.36 12.974V0.779268H137.199V12.5385C137.199 15.8049 138.07 17.3292 140.248 17.3292C142.425 17.3292 143.296 16.0226 143.296 12.3207V0.779268H151.136L151.354 12.974ZM44.4279 0.779268V6.44109H37.895V22.9911H29.8378V6.44109H23.0872V0.779268H44.4279ZM57.9292 5.78781L55.9693 13.4095H59.8891L57.9292 5.78781ZM63.1555 22.9911L61.8489 18.8536H54.2272L52.7029 22.9911H44.6457L52.7029 0.779268H62.9377L70.995 22.9911H63.1555ZM177.054 21.249L174.659 15.3694C173.134 16.6759 171.392 17.3292 169.432 17.3292C166.384 17.3292 164.206 14.7161 164.206 11.8852V11.6674C163.988 8.83648 165.948 6.22333 168.997 5.78781H169.432C171.392 5.78781 173.352 6.65886 174.659 7.96543L177.054 2.30361C174.223 0.77927 171.174 0.125982 168.126 0.125982C161.811 -0.091781 156.367 4.91676 156.149 11.2319C155.931 17.547 160.94 22.9911 167.255 23.2088H168.344C171.392 23.6443 174.441 22.7733 177.054 21.249ZM203.403 0.779268L196.217 11.6674L204.274 22.9911H195.128L190.12 14.9338V22.9911H182.28V0.779268H190.12V8.83649L194.693 0.779268H203.403ZM9.58155 23.4266C14.5901 23.4266 19.8164 21.6845 19.8164 16.0227C19.8164 11.0141 15.4611 9.48977 11.9769 8.83649C9.36379 8.40096 8.27498 7.96544 8.27498 7.09439C8.27498 5.78781 10.0171 5.57005 10.8881 5.57005C13.0658 5.57005 15.2434 6.44109 17.2032 7.52991L19.3809 2.52137C16.55 1.21479 13.5013 0.561503 10.2348 0.343741C5.00854 0.343741 0.871051 2.95689 0.871051 7.96543C0.871051 12.1029 4.13749 13.845 7.40393 14.4983C9.79932 15.1516 11.3237 15.3694 11.3237 16.4582C11.3237 17.547 10.2348 17.9825 8.92827 17.9825C6.53288 17.9825 4.13749 17.1115 2.39539 15.5871L0 20.3779C3.26644 22.3378 6.31512 23.2088 9.58155 23.4266ZM216.251 23.4288C221.26 23.4288 226.486 21.6867 226.486 16.0248C226.486 11.0163 222.131 9.49195 218.647 8.83866C216.034 8.40314 214.945 7.96761 214.945 7.09656C214.945 5.78999 216.687 5.57222 217.558 5.57222C219.736 5.57222 221.913 6.44328 223.873 7.53209L226.051 2.52354C223.22 1.21697 220.171 0.56368 216.905 0.345917C211.678 0.345917 207.541 2.95907 207.541 7.96761C207.541 12.1051 210.589 13.8472 214.291 14.5005C216.687 15.1538 218.211 15.3715 218.211 16.4604C218.211 17.5492 216.905 17.9847 215.816 17.9847C213.42 17.9847 211.025 17.1136 209.283 15.5893L206.67 20.3801C209.718 22.3399 212.985 23.211 216.251 23.4288ZM92.1201 14.7183C94.7333 13.6294 96.2576 11.234 96.2576 8.40314C96.2576 3.17683 92.5556 0.781444 87.5471 0.781444H75.5702V22.9932H83.4096V16.4604H85.3695L89.2892 22.9932H97.5642L92.1201 14.7183ZM88.6359 8.40314C88.6359 9.70971 87.7649 10.5808 86.676 10.7985H83.6274V6.00775H86.4583C87.5471 5.78999 88.6359 6.66103 88.8537 7.96761C88.6359 8.18537 88.6359 8.18537 88.6359 8.40314ZM119.123 11.6696C121.736 11.4518 123.696 9.27419 123.478 6.66104C123.478 2.95907 120.647 0.781444 115.638 0.781444H103.008V22.9932H115.203C121.083 22.9932 123.913 20.8156 123.913 16.6781C124.131 14.065 121.954 11.8873 119.123 11.6696ZM110.63 5.57222H113.461C114.985 5.57222 115.856 6.22551 115.856 7.53209C115.856 8.83867 114.985 9.49195 113.461 9.49195H110.63V5.57222ZM115.856 16.0248C115.856 17.3314 114.985 17.9847 113.243 17.9847H110.412V13.8472H113.245C114.987 14.065 115.858 14.7183 115.858 16.0248H115.856Z" fill="#FFEA00"/>
</g>
</svg>
