<svg width="224" height="29" viewBox="0 0 224 29" fill="none" xmlns="http://www.w3.org/2000/svg">
<g opacity="0.4">
<path fill-rule="evenodd" clip-rule="evenodd" d="M48.9737 5.1482C41.6964 5.1482 37.1183 10.2146 37.1183 17.2973C37.1183 24.1255 42.175 28.719 48.9737 28.719C54.9894 28.719 59.6935 25.2859 60.3471 19.3171H53.1595C52.8085 21.6803 51.5004 23.1376 48.9297 23.1376C45.7908 23.1376 44.5283 20.1773 44.5283 17.2973C44.5283 14.2093 45.182 10.7288 49.3221 10.7288C51.1943 10.7288 52.8948 12.0652 52.9413 13.9522H60.1273C59.6081 8.06876 54.597 5.1482 48.9737 5.1482ZM128.376 5.14735C125.169 5.14735 122.914 6.5996 121.565 8.93655H121.474V5.7927H114.287V28.0762H121.694V16.5056C121.694 13.2527 123.117 11.1542 125.702 11.1551C129.546 11.1551 129.408 14.249 129.408 17.2956V28.0762H136.817V13.7762C136.817 10.5554 135.917 5.14735 128.376 5.14735ZM150.002 5.14735C147.429 5.14735 144.815 5.57871 142.809 6.69686C140.805 7.85223 139.41 9.74345 139.281 12.6623H146.21C146.56 10.7736 147.866 9.87455 149.914 9.87455C151.441 9.87455 153.487 10.5123 153.487 12.187C153.487 13.5656 152.789 13.9911 151.527 14.2507C146.385 15.2784 138.366 14.7227 138.366 21.9754C138.366 26.5724 141.765 28.7173 146.076 28.7173C148.782 28.7173 151.616 27.9451 153.532 25.9719C153.62 26.7018 153.705 27.386 153.966 28.0762H161.421C160.549 26.3161 160.55 24.2532 160.55 22.3628V12.6158C160.55 6.30864 155.359 5.14735 150.001 5.14735H150.002ZM153.401 17.6416C153.576 22.2376 152.396 24.2092 148.868 24.2092C147.212 24.2092 145.775 23.4776 145.775 21.6794C145.775 19.9159 147.171 19.2283 148.826 18.8434C150.441 18.4146 152.356 18.2886 153.401 17.6424L153.401 17.6416ZM162.969 0.826147V28.0779H170.376V0.825301L162.969 0.826147ZM188.01 0.826147V8.19901H187.919C186.395 6.18092 184.259 5.14989 181.471 5.14989C175.063 5.14989 171.927 10.6451 171.927 16.4405C171.927 22.7088 174.935 28.719 182.037 28.719C184.652 28.719 186.832 27.6034 188.27 25.4991H188.355V28.0771H195.418V0.826147H188.01ZM183.867 10.7305C187.092 10.7305 188.27 13.695 188.27 16.9133C188.27 19.7451 187.485 23.1376 183.867 23.1376C180.468 23.1376 179.337 19.7459 179.337 16.6985C179.337 13.8667 180.468 10.7305 183.867 10.7305ZM196.964 0.826147V8.19732H200.431L203.893 0.826147H196.964ZM61.8963 0.826147V28.0779H73.7906C82.196 28.0779 87.3483 23.2678 87.3483 14.3404C87.3483 5.90181 82.2721 0.826147 73.7906 0.826147H61.8963ZM69.7909 7.14429H73.1192C77.4242 7.14429 79.3539 9.97942 79.3539 14.3192C79.3539 19.093 77.798 21.7623 73.1192 21.7623H69.7909V7.14429ZM5.93387 0.788086L0.219238 28.0771H8.37852L10.4816 17.2398C10.7065 16.0424 10.898 14.8389 11.0557 13.6308H11.1377C11.2663 14.3852 11.5986 15.8789 11.9326 17.1535L14.8973 28.0771H23.0067L25.9664 17.1535C26.3038 15.8789 26.6344 14.3852 26.7612 13.6308H26.8483C26.9202 14.2101 27.1477 15.8442 27.4208 17.2398L29.5238 28.0771H37.6814L31.9676 0.788086H23.3204L19.856 14.4943C19.5659 15.5566 19.2082 17.277 18.9918 18.1744H18.9106C18.6907 17.277 18.3356 15.5566 18.0464 14.4943L14.5802 0.788086L5.93387 0.788086ZM100.796 5.1482C93.4933 5.1482 88.8932 10.2594 88.8932 16.9539C88.8932 23.6501 93.4917 28.7596 100.794 28.7596C108.098 28.7596 112.694 23.651 112.694 16.9539C112.694 10.2594 108.099 5.1482 100.796 5.1482ZM100.794 10.7288C103.997 10.7288 105.282 13.3872 105.282 16.9539C105.282 20.524 103.998 23.179 100.795 23.179C97.5903 23.179 96.305 20.524 96.305 16.9539C96.305 13.3863 97.5895 10.7288 100.794 10.7288ZM212.705 5.14566C208.32 5.14566 202.32 6.60467 202.32 11.973C202.32 17.9841 208.276 18.1101 212.879 19.2706C214.167 19.5734 216.449 19.9142 216.448 21.6329C216.448 23.3955 214.426 23.9961 213.006 23.9961C211.973 23.9961 211.082 23.7381 210.395 23.2222C209.664 22.6622 209.192 21.8443 209.192 20.7313H202.124C202.34 26.9598 207.76 28.7173 213.051 28.7173C218.084 28.7173 223.953 26.7415 223.953 20.7753C223.953 18.9289 222.795 15.6649 218.277 14.7607C214.921 14.035 209.826 13.6494 209.826 11.545C209.826 9.99719 211.763 9.86862 212.964 9.86862C213.869 9.86862 214.588 10.0412 215.191 10.4269C215.792 10.8142 216.138 11.4139 216.138 12.3587H222.987C222.73 6.56323 217.609 5.14566 212.705 5.14566Z" fill="#FFEA00"/>
</g>
</svg>
